<?xml version="1.0" encoding="utf-8"?>
<!-- Generator: Adobe Illustrator 24.0.2, SVG Export Plug-In . SVG Version: 6.00 Build 0)  -->
<svg version="1.1" id="Capa_1" xmlns="http://www.w3.org/2000/svg" xmlns:xlink="http://www.w3.org/1999/xlink" x="0px" y="0px"
	 viewBox="0 0 1280 1024" style="enable-background:new 0 0 1280 1024;" xml:space="preserve">
<style type="text/css">
	.st1{fill:#89DE02;}
	.st2{fill:#89DE01;}
	.st3{fill:#00B900;}
	.st4{fill:#1F140F;}
	.st5{fill:#201410;}
	.st6{fill:#1F130F;}
	.st7{fill:#261C19;}
	.st8{fill:#291F1D;}
	.st9{fill:#241A17;}
</style>
<g>
	<path class="st1" d="M167.61,413.52c-2.83,1.6-4.85,3.88-6.41,6.76c-9.8,18.1-19.67,36.16-29.57,54.22
		c-1.11,2.03-1.97,4.09-1.95,6.4c0.02,1.99-0.71,2.76-2.81,2.75c-13.61-0.1-27.22-0.08-40.83-0.11c0-46.56,0.02-93.12-0.07-139.68
		c0-2.45,0.5-2.95,2.96-2.95c46.67,0.09,93.35,0.07,140.02,0.07c0.59,8.35,0.14,16.72,0.24,25.08c0.08,6.56,0.01,13.12,0.02,19.68
		c0,1.45,0.34,3.05-1.88,3.27c-0.73,0.08-1.08,0.77-1.41,1.37c-8.12,14.87-16.23,29.74-24.6,45.09c2.93-0.57,4.55-1.86,5.73-4.06
		c6.56-12.14,13.19-24.24,19.82-36.33c0.52-0.94,0.77-2.1,2.31-3c-0.2,4.94,0.65,9.43-2.02,13.89c-4.58,7.65-8.62,15.63-13.04,23.75
		c2.44,0.27,3.85-0.6,4.9-2.59c3.06-5.77,6.25-11.47,9.84-18.04c0.68,6.85,0.7,12.6-4.23,18.22c4.6-0.94,4.66,1.13,4.64,3.9
		c-0.12,16.29-0.13,32.58,0,48.87c0.02,2.84-0.79,3.59-3.61,3.57c-17.58-0.13-35.16-0.06-52.74-0.06c-4.26,0-4.26,0-3.86-4.02
		c0.04-0.41-0.04-0.83-0.13-2.35c-2.3,4.2-3.84,8.49-9.42,5.7c16.31-29.88,32.75-59.98,49.27-90.24c-3.05-0.83-4.03,1.04-5.07,2.95
		c-15.27,28-30.63,55.95-45.77,84.02c-1.89,3.51-4.01,4.84-8.19,3.46c15.75-28.85,31.48-57.67,47.4-86.84
		c-3.06,0.08-4.43,1.69-5.61,3.86c-14.6,26.82-29.28,53.6-43.82,80.44c-1.26,2.33-2.62,3.32-5.28,3.07
		c-1.96-0.18-2.42-0.56-1.39-2.37c2.67-4.73,5.23-9.52,7.83-14.29c11.16-20.45,22.33-40.89,33.47-61.35
		c0.46-0.84,1.27-1.58,1.05-2.9c-2.64,0.62-4.2,2.24-5.44,4.53c-13.34,24.54-26.75,49.05-40.16,73.55
		c-0.66,1.21-0.96,2.97-2.96,2.76c-1.3-0.14-3.03,0.66-3.81-0.51c-0.72-1.08,0.65-2.24,1.22-3.29
		c11.41-20.96,22.84-41.9,34.26-62.86c0.54-0.99,1-2.02,1.5-3.03c0.07-0.26,0.27-0.68,0.2-0.74
		C167.87,412.94,167.72,413.24,167.61,413.52z M219.81,390.33c-2.97-1.09-3.94,0.65-4.96,2.52c-9.18,16.85-18.39,33.69-27.6,50.53
		c-0.82,1.51-1.69,3-2.54,4.49c0.22,0.19,0.45,0.38,0.67,0.57c2.61-1.71,4.84-3.84,6.4-6.71c6.68-12.29,13.38-24.57,20.08-36.85
		C214.5,400.06,217.14,395.23,219.81,390.33z"/>
	<path class="st2" d="M86.05,487.62c8.49-0.58,16.99-0.14,25.48-0.24c6.35-0.08,12.7,0.08,19.05-0.06c2.81-0.06,3.75,0.31,2.03,3.21
		c-1.97,3.33-4.65,6.55-3.65,10.92c0.04,0.18,0.17,0.35,0.48,0.98c2.35-4.26,4.7-8.19,6.72-12.28c1.04-2.11,2.33-2.86,4.69-2.86
		c2.84,0,2.71,0.88,1.58,2.91c-3.75,6.71-7.33,13.51-11.09,20.21c-1.17,2.08-1.28,3.99-0.06,6.52c4.12-7.55,8.07-14.77,12.01-21.99
		c0.92-1.69,2.09-3.29,2.73-5.08c1.12-3.13,3.64-2.83,5.88-2.38c2.27,0.45,0.56,1.93,0.12,2.75c-4.61,8.57-9.29,17.1-13.95,25.64
		c-1.3,2.38-2.43,4.87-3.93,7.13c-1.26,1.9-0.92,3.46,0.03,5.26c1.35-0.6,1.58-1.81,2.09-2.74c6.27-11.4,12.67-22.74,18.63-34.3
		c1.89-3.67,4.17-4.55,8.18-3.43c-3.22,5.89-6.46,11.67-9.52,17.55c-0.61,1.17-2.73,2.76-0.92,3.88c2.34,1.44,2.88-1.26,3.68-2.71
		c3.14-5.63,6.27-11.26,9.24-16.98c0.86-1.66,1.9-2.19,3.71-2.19c19.05,0.06,38.11,0.07,57.16-0.01c2.23-0.01,2.86,0.67,2.85,2.87
		c-0.07,23.87-0.07,47.74,0,71.61c0.01,2.33-0.6,2.88-2.93,2.43c-19.26-3.68-33.44-14.81-44.84-30.12
		c-1.35-1.82-0.73-2.69,0.97-3.66c3.44-1.96,6.81-4.06,10.19-6.14c0.73-0.45,1.85-0.76,1.51-1.93c-0.25-0.88-1.25-0.9-2-1.04
		c-14.36-2.65-28.73-5.22-43.08-7.95c-2.15-0.41-2.81,0.42-3.35,2.18c-4.23,13.82-8.51,27.63-12.77,41.44
		c-0.25,0.82-1.01,1.73,0.03,2.44c0.94,0.64,1.72-0.21,2.46-0.64c2.83-1.66,5.71-3.27,8.41-5.13c1.97-1.36,2.87-0.97,4.19,0.99
		c14.61,21.86,34.63,36.35,60.05,43.32c6.01,1.65,12.12,2.9,18.37,3.08c2.34,0.07,2.82,1.02,2.79,3.1
		c-0.09,6.45-0.12,12.9,0.01,19.34c0.04,2.12-0.63,2.65-2.7,2.64c-11.57-0.09-23.14-0.04-34.7-0.04c-35.27,0-70.54,0-105.81,0
		C86.05,579.95,86.05,533.78,86.05,487.62z M167.07,498.09c-2.18,3.99-4.07,7.41-5.91,10.86c-0.31,0.59-1.17,1.34-0.07,1.96
		c0.91,0.51,2.06,0.88,2.64-0.32C165.55,506.9,168.95,503.66,167.07,498.09z"/>
	<path class="st1" d="M233.69,411.56c-1.05-5.19-1.47-10.16,1.81-14.64c1.32-1.81,2.26-3.92,3.25-5.94
		c0.33-0.66,1.54-1.59,0.26-2.19c-0.93-0.44-2.24-0.48-2.96,0.83c-0.84,1.54-1.75,3.04-3.27,4.4c0-5.37,0-10.74,0-16.11
		c0-4.64,0.07-9.28-0.03-13.91c-0.04-1.78,0.57-2.52,2.34-2.35c0.56,0.06,1.13,0.01,1.7,0.01c44.91,0,89.81,0.04,134.72-0.08
		c3.22-0.01,3.84,0.95,3.83,3.94c-0.09,44.91-0.09,89.82,0,134.72c0.01,2.89-0.55,3.75-3.65,3.74
		c-45.02-0.12-90.04-0.11-135.06-0.01c-3.07,0.01-3.94-0.72-3.92-3.85c0.13-25.45,0.1-50.9,0.04-76.35
		c-0.01-2.91,0.64-5.46,2.1-8.02c4.35-7.67,8.53-15.44,12.7-23.21c0.48-0.9,2.17-2.11,0.51-3.06c-1.65-0.94-2.55,0.51-3.31,1.91
		C241.09,398.12,237.38,404.83,233.69,411.56z M319.32,468.65c5.34,0.3,3.94,0.93,5.34-4.73c0.76-3.07,1.27-6.19,1.91-9.28
		c2.1-10.04,4.23-20.08,6.28-30.14c0.21-1.01,0.91-2.4-0.32-3.08c-1.02-0.57-1.82,0.62-2.61,1.19c-2.39,1.71-4.87,3.34-7.08,5.28
		c-2.03,1.78-3.16,1.82-5-0.5c-9.59-12.06-21.54-21.24-35.27-28.21c-2.08-1.06-3.05-0.79-4.16,1.29
		c-5.05,9.48-10.16,18.94-15.48,28.27c-1.41,2.46-0.76,3.3,1.44,4.48c8.58,4.59,15.91,10.77,22.4,17.99
		c1.41,1.57,1.33,2.51-0.43,3.7c-3.27,2.24-6.42,4.65-9.59,7.03c-0.69,0.51-1.78,0.92-1.53,2.01c0.25,1.1,1.37,1.02,2.24,1.1
		C291.23,466.25,304.99,467.42,319.32,468.65z M235.67,426.32c1.54,0.33,2.87,0.69,3.83-1.09c5.84-10.83,11.75-21.62,17.64-32.42
		c0.38-0.69,0.97-1.5-0.09-1.99c-0.78-0.36-1.81-0.59-2.47,0.34c-0.52,0.73-0.94,1.54-1.37,2.33c-5.04,9.21-10.09,18.42-15.1,27.65
		C237.22,422.8,235.99,424.32,235.67,426.32z M266.14,394.08c0.17-0.81-0.25-1.11-0.84-1.31c-1.29-0.43-2.08,0.02-2.73,1.22
		c-5.65,10.43-11.35,20.83-17,31.26c-0.3,0.55-1.24,1.42,0.04,1.9c0.77,0.29,1.75,0.82,2.47-0.18c0.4-0.55,0.73-1.14,1.06-1.74
		c5.37-9.82,10.73-19.63,16.09-29.45C265.56,395.19,265.87,394.59,266.14,394.08z M255.44,429.33c1.23,0.25,1.53-0.75,1.95-1.51
		c5.44-9.92,10.87-19.84,16.28-29.77c0.43-0.8,1.44-1.77-0.13-2.5c-1.26-0.59-2.06-0.16-2.72,1.07
		c-5.54,10.24-11.11,20.46-16.72,30.66C253.17,428.98,254.15,429.2,255.44,429.33z"/>
	<path class="st3" d="M304.12,508c22.68,0,45.36,0.04,68.04-0.06c2.49-0.01,3.18,0.52,3.18,3.11c-0.1,37.33-0.09,74.66,0,111.98
		c0.01,2.54-0.6,3.14-3.14,3.14c-45.36-0.09-90.72-0.08-136.07-0.01c-2.49,0-3.54-0.39-3.43-3.23c0.25-6.21,0.17-12.44,0.02-18.66
		c-0.05-2.28,0.71-2.74,2.87-2.77c24.6-0.31,46.76-7.77,66.13-22.99c10.23-8.04,18.79-17.59,25.41-28.86
		c1.24-2.11,1.12-2.82-1.21-3.73c-10.67-4.17-21.3-8.43-31.85-12.9c-2.45-1.04-3.14,0.25-4.25,1.73
		c-9.24,12.41-20.59,22.14-35.43,27.32c-6.04,2.11-12.27,3.11-18.69,3.1c-2.03,0-3.01-0.32-2.99-2.72
		c0.1-17.31,0.11-34.61-0.01-51.92c-0.02-2.59,1.18-2.57,3.05-2.56C258.54,508.01,281.33,508,304.12,508z"/>
	<path class="st4" d="M658.55,462.65c6.47,8.72,12.83,17.29,19.58,26.39c-6.06,0-11.46-0.03-16.85,0.02
		c-1.44,0.01-1.87-1.03-2.52-1.92c-5.2-7.11-10.45-14.18-15.55-21.36c-1.05-1.48-2.09-2.03-3.86-1.96c-3.51,0.14-7.03,0.15-10.54,0
		c-1.96-0.08-2.47,0.57-2.44,2.47c0.11,6.78-0.03,13.57,0.09,20.36c0.03,1.91-0.5,2.52-2.44,2.44c-3.51-0.15-7.03-0.12-10.54-0.01
		c-1.64,0.05-2.09-0.46-2.09-2.08c0.05-25,0.04-49.99,0.02-74.99c0-1.32-0.1-2.4,1.85-2.35c13.02,0.35,26.07-0.64,39.08,0.56
		c11.93,1.1,21.55,11.42,22.46,23.34C675.66,444.83,672.43,455.72,658.55,462.65z M626.41,436.57c0,3.84,0.1,7.69-0.04,11.53
		c-0.07,1.95,0.56,2.51,2.48,2.47c5.78-0.11,11.56-0.14,17.34-0.02c5.79,0.13,10.32-2.05,12.5-7.43c2.28-5.62,1.86-11.3-2.01-16.28
		c-1.71-2.2-4.12-3.62-6.98-3.66c-7.14-0.1-14.28,0-21.42-0.07c-1.51-0.02-1.93,0.47-1.9,1.93
		C626.47,428.88,626.41,432.72,626.41,436.57z"/>
	<path class="st4" d="M788.75,490.61c-22.39,0.04-40.96-18.33-41.3-40.27c-0.35-22.27,17.52-42,41.25-42.12
		c22.62-0.11,41.17,18.47,41.19,41.05C829.92,472.25,811.69,490.57,788.75,490.61z M788.75,422.37c-14.3,0-26.25,12.36-26.25,27.14
		c0,14.71,12.05,27.24,26.21,27.24c14.21,0.01,26.18-12.43,26.18-27.21C814.9,434.64,803.09,422.37,788.75,422.37z"/>
	<path class="st5" d="M897.91,458.1c0-15.21,0.13-29.66-0.09-44.1c-0.05-3.46,0.84-4.54,4.25-4.16c2.8,0.31,5.67,0.14,8.5,0.03
		c1.66-0.06,2.39,0.29,2.38,2.19c-0.06,25-0.04,50-0.06,75c0,0.62,0.35,1.47-0.41,1.81c-1.19,0.55-1.82-0.48-2.56-1.14
		c-11.36-10.23-22.72-20.45-34.08-30.68c-5.46-4.91-10.9-9.84-16.53-14.91c-0.9,1.17-0.54,2.42-0.54,3.55
		c-0.03,13.46-0.07,26.92,0.03,40.38c0.02,2.31-0.5,3.2-2.96,3.03c-3.05-0.22-6.13-0.22-9.18,0c-2.44,0.17-2.98-0.7-2.98-3.03
		c0.08-24.43,0.05-48.87,0.07-73.3c0-0.94-0.56-2.26,0.69-2.71c1.1-0.39,1.79,0.73,2.53,1.4c14.61,13.39,29.21,26.79,43.81,40.19
		C892.96,453.63,895.14,455.59,897.91,458.1z"/>
	<path class="st6" d="M1096.24,490.58c-9.61,0.42-19.88-3.71-29.32-10.46c-1.42-1.01-1.74-1.67-0.65-3.13
		c1.95-2.62,3.85-5.3,5.52-8.11c1.12-1.89,2.02-1.74,3.69-0.66c5.58,3.61,11.3,7.09,18.01,8.16c5.3,0.85,10.62,0.92,15.48-1.93
		c3.31-1.94,5.64-4.65,5.33-8.73c-0.29-3.82-3.16-5.46-6.33-6.7c-6.55-2.56-13.61-2.97-20.36-4.67c-6.65-1.67-13.05-3.94-17.48-9.52
		c-9.75-12.26-3.3-30.27,12.68-34.44c14.52-3.79,28.42-2.2,40.94,6.93c1.65,1.2,1.57,1.97,0.47,3.4c-1.92,2.5-3.8,5.07-5.46,7.75
		c-1.13,1.82-2.05,1.69-3.69,0.61c-6.23-4.08-12.89-6.97-20.57-6.63c-3.42,0.15-6.71,0.96-9.63,2.78
		c-5.54,3.44-5.33,9.01,0.38,12.19c4,2.22,8.5,2.86,12.83,3.99c5.32,1.39,10.84,1.92,16.02,3.93c11.21,4.35,15.61,11.03,15.21,23.43
		c-0.31,9.38-6.73,17.09-16.79,20.11C1107.93,490.28,1103.2,490.62,1096.24,490.58z"/>
	<path class="st4" d="M486.7,490.62c-22.1-0.03-40.36-17.57-41.31-39.67c-1.04-24.08,20.69-44.56,44.67-42.26
		c13.21,1.27,23.43,7.37,31.04,18.13c1.31,1.86,1.42,2.89-0.99,3.48c-0.54,0.13-1.08,0.35-1.56,0.62
		c-5.79,3.28-11.36,5.16-15.6-2.24c-16.56-13.81-37.94-3.34-41.81,15.42c-3.12,15.14,6.17,29.17,21.17,32.23
		c9.94,2.03,17.95-2.15,24.19-9.67c1.72-2.07,3.02-2.45,5.31-1.35c2.63,1.26,5.36,2.32,8.12,3.29c2.18,0.77,2.68,1.46,1.22,3.69
		C513.74,483.52,500.58,490.64,486.7,490.62z"/>
	<path class="st6" d="M981.01,489.04c5.8-11.29,11.34-22.07,16.86-32.85c7.53-14.7,15.04-29.41,22.6-44.1
		c0.42-0.82,0.56-2.16,1.88-2.09c1.06,0.06,1.21,1.16,1.61,1.94c12.93,25.19,25.86,50.38,38.79,75.58c0.19,0.37,0.32,0.78,0.63,1.52
		c-5.13,0-9.97-0.06-14.8,0.04c-1.37,0.03-1.73-0.83-2.16-1.7c-1.45-2.91-2.91-5.82-4.25-8.78c-0.64-1.4-1.49-1.89-3.06-1.88
		c-11.22,0.07-22.44,0.09-33.67-0.01c-1.83-0.02-2.6,0.75-3.27,2.21c-1.26,2.75-2.74,5.41-3.92,8.18c-0.63,1.48-1.46,2-3.05,1.97
		C990.67,488.98,986.14,489.04,981.01,489.04z M1022.26,439.18c-3.99,8.42-7.75,16.33-11.66,24.58c7.36,0,14.14-0.01,20.91,0.01
		c1.31,0.01,2.4-0.08,1.58-1.81C1029.57,454.5,1026.01,447.05,1022.26,439.18z"/>
	<path class="st6" d="M605.66,489.04c-4.86,0-9.39-0.07-13.92,0.04c-1.6,0.04-2.41-0.52-3.06-1.97c-1.27-2.86-2.87-5.58-4.15-8.44
		c-0.65-1.46-1.5-1.95-3.08-1.94c-11.22,0.06-22.45,0.07-33.67,0c-1.55-0.01-2.39,0.45-3.09,1.85c-1.74,3.48-2.43,8.94-5.48,9.96
		c-4.65,1.55-10.2,0.41-15.8,0.41c4.01-7.78,7.86-15.24,11.69-22.71c9.23-18,18.45-36,27.69-53.99c0.44-0.86,0.58-2.09,1.79-2.23
		c1.18-0.14,1.37,1.05,1.75,1.79c12.99,25.29,25.95,50.6,38.91,75.91C605.4,488,605.45,488.34,605.66,489.04z M576.26,463.76
		c-3.91-8.29-7.62-16.18-11.58-24.57c-3.82,7.96-7.41,15.4-10.96,22.86c-0.65,1.37,0.08,1.73,1.4,1.73
		C561.99,463.74,568.86,463.76,576.26,463.76z"/>
	<path class="st6" d="M930.59,449.31c0-12.21,0.06-24.43-0.05-36.64c-0.02-2.28,0.45-3.06,2.93-3.05c17.57,0.11,35.14,0.11,52.72,0
		c2.38-0.01,3.16,0.59,2.99,2.99c-0.24,3.36,1.15,7.91-0.55,9.82c-1.95,2.19-6.59,0.64-10.05,0.67c-10.09,0.09-20.18,0.1-30.27-0.02
		c-2.24-0.03-2.85,0.6-2.78,2.8c0.17,4.86,0.15,9.73,0.01,14.59c-0.06,1.95,0.57,2.43,2.46,2.41c10.88-0.09,21.77,0.11,32.65-0.13
		c3.18-0.07,3.89,0.94,3.6,3.78c-0.23,2.24-0.24,4.54,0,6.78c0.33,2.94-0.88,3.5-3.61,3.46c-10.65-0.16-21.31,0.03-31.97-0.13
		c-2.62-0.04-3.2,0.74-3.15,3.23c0.16,8.82-0.02,17.64,0.12,26.46c0.03,2.24-0.59,2.9-2.8,2.77c-3.16-0.19-6.36-0.2-9.52,0
		c-2.28,0.15-2.78-0.63-2.77-2.81C930.64,473.96,930.59,461.64,930.59,449.31z"/>
	<path class="st5" d="M719.65,456.34c0,9.95-0.09,19.9,0.06,29.84c0.04,2.44-0.69,3.07-3.02,2.91c-3.05-0.21-6.13-0.23-9.17,0.01
		c-2.46,0.19-2.94-0.66-2.93-2.99c0.1-19.9,0.01-39.79,0.11-59.69c0.01-2.53-0.46-3.48-3.25-3.36c-5.66,0.25-11.33-0.01-17,0.12
		c-1.99,0.04-2.91-0.34-2.71-2.56c0.3-3.47-1.37-7.96,0.61-10.18c2.03-2.27,6.6-0.7,10.05-0.72c15.75-0.08,31.51,0.02,47.26-0.09
		c2.41-0.02,3.18,0.66,2.99,3.03c-0.2,2.58-0.22,5.21,0,7.79c0.2,2.38-0.78,2.78-2.89,2.73c-5.66-0.13-11.34,0.08-17-0.1
		c-2.45-0.08-3.25,0.44-3.21,3.08C719.76,436.22,719.65,446.28,719.65,456.34z"/>
	<path class="st5" d="M1170.06,456.04c0,10.06-0.06,20.13,0.05,30.19c0.02,2.13-0.42,3.03-2.76,2.87c-3.05-0.21-6.13-0.23-9.17,0
		c-2.5,0.19-3.2-0.5-3.19-3.1c0.12-19.67,0.01-39.35,0.13-59.02c0.02-2.94-0.51-4.11-3.78-3.93c-5.54,0.31-11.1,0.01-16.66,0.13
		c-1.94,0.04-2.89-0.23-2.71-2.51c0.23-2.81,0.21-5.66,0.01-8.47c-0.16-2.23,0.74-2.56,2.72-2.56c18.36,0.07,36.72,0.07,55.09,0
		c2.09-0.01,3.1,0.34,2.9,2.72c-0.22,2.7-0.23,5.44,0,8.13c0.21,2.41-0.83,2.72-2.88,2.68c-5.66-0.12-11.34,0.06-17-0.09
		c-2.2-0.06-2.84,0.52-2.81,2.77C1170.13,435.91,1170.06,445.98,1170.06,456.04z"/>
	<path class="st7" d="M942.83,552.29c-6.09,0-9.73-2.75-11.56-8.4c-1.43-4.39-1.43-8.86,0-13.26c1.84-5.64,5.76-8.57,11.14-8.53
		c5.28,0.04,8.83,2.83,10.73,8.57c1.91,5.75,1.33,11.31-1.78,16.51C949.32,550.61,946.27,552.52,942.83,552.29z M950.47,537.03
		c-0.06-1.35-0.03-2.72-0.21-4.06c-0.61-4.51-3.66-7.82-7.32-8.06c-4.3-0.28-6.91,1.68-8.27,6.74c-1.32,4.9-1.39,9.84,1.36,14.35
		c3.06,5.03,9.4,4.85,12.44-0.21C950.11,543.08,950.5,540.11,950.47,537.03z"/>
	<path class="st8" d="M997.27,532.69c0-3.08,0.04-5.66-0.02-8.24c-0.03-1.2,0.18-1.91,1.64-1.86c1.35,0.05,1.7,0.62,1.7,1.88
		c-0.04,8.46-0.02,16.92-0.02,25.38c0,0.92,0.09,1.81-1.25,1.95c-1.98,0.2-1.51-1.49-1.88-2.98c-2.96,3.42-6.37,4.51-10.09,2.75
		c-4.03-1.9-5.19-5.68-5.26-9.83c-0.02-1.57-0.03-3.21,0.37-4.7C983.98,531.27,989.66,526.35,997.27,532.69z M997.27,540.78
		c0-0.9,0.04-1.8-0.01-2.7c-0.15-3.17-2.08-5.41-5.01-5.8c-3.23-0.43-5.16,1.22-6.06,4.1c-1,3.16-0.87,6.38,0.09,9.56
		c0.68,2.27,2.24,3.72,4.55,3.94c2.15,0.2,3.79-1.01,5.14-2.68C997.53,545.25,997.29,543.01,997.27,540.78z"/>
	<path class="st9" d="M797.09,537.21c0.04,2.88,0.58,5.63,1.94,8.16c1.37,2.55,3.36,4.08,6.49,4.06c3.16-0.02,5-1.69,6.33-4.26
		c0.31-0.6,0.59-1.22,0.79-1.85c0.48-1.6,1.69-0.74,2.51-0.65c1.4,0.16,0.6,1.26,0.42,1.83c-1.11,3.65-3.26,6.63-7.08,7.49
		c-3.97,0.89-7.9,0.48-10.91-2.88c-4.98-5.54-5.4-17.14-0.81-23.01c3.02-3.86,7.18-4.55,11.61-3.77c3.8,0.67,5.86,3.56,7.16,6.97
		c0.29,0.76,0.68,1.75-0.63,2.21c-1.09,0.38-2.04,0.46-2.48-0.83c-1.35-4.02-3.92-6.45-8.35-5.61c-4.34,0.82-5.73,4.31-6.41,8.16
		C797.42,534.54,797.28,535.88,797.09,537.21z"/>
	<path class="st9" d="M701.76,542.96c-1.84,7.07-5.29,9.74-11.91,9.25c-5.3-0.39-9.72-5.38-10.33-12.05
		c-0.39-4.27-0.35-8.57,1.99-12.46c2.53-4.19,6.22-5.93,11.11-5.58c4.27,0.31,6.82,2.71,8.33,6.36c0.32,0.78,1.95,2.06-0.14,2.99
		c-1.77,0.78-2.35-0.2-2.9-1.59c-1.04-2.66-2.69-4.65-5.82-4.91c-3.48-0.29-5.94,1.22-7.34,4.29c-2.3,5.07-2.38,10.3-0.24,15.39
		c1.18,2.81,3.23,4.78,6.72,4.78c3.48-0.01,5.55-1.84,6.59-4.8C698.64,542.35,699.79,541.96,701.76,542.96z"/>
	<path class="st9" d="M580.33,533.25c7.11-6.12,13.29-3.91,15.18,4.93c0.61,2.86,0.23,5.62-0.83,8.27
		c-2.68,6.77-8.76,7.71-14.79,2.27c-0.72,0.93-0.5,2.44-1.71,3c-1.07-0.24-0.8-1.04-0.8-1.66c-0.01-8.36-0.02-16.72,0.01-25.09
		c0-0.98-0.57-2.38,1.41-2.37c1.87,0.01,1.52,1.25,1.52,2.33C580.34,527.6,580.33,530.26,580.33,533.25z M592.5,541.02
		c-0.18-1.1-0.28-2.23-0.57-3.3c-1.04-3.98-2.74-5.54-5.79-5.39c-2.96,0.14-5.2,2.43-5.71,6.09c-0.33,2.35-0.26,4.73,0.37,7.05
		c0.74,2.72,2.77,4.18,5.38,4.43c2.51,0.23,4.25-1.37,5.24-3.58C592.16,544.66,592.59,542.89,592.5,541.02z"/>
	<path class="st9" d="M1078.82,532.73c0-2.97,0-5.43,0-7.89c0-1.12-0.23-2.33,1.61-2.23c1.7,0.08,1.27,1.27,1.28,2.19
		c0.02,8.01,0.05,16.02-0.03,24.03c-0.01,1,0.95,2.68-1.15,2.92c-2.46,0.29-1.18-1.85-1.89-2.99c-2.56,3.36-5.96,4.57-9.8,2.9
		c-4.11-1.79-5.11-5.69-5.55-9.73c-0.23-2.17,0.27-4.27,1.02-6.27C1066.74,529.24,1072.15,528,1078.82,532.73z M1078.87,540.65
		c-0.06-1.01,0-2.04-0.19-3.03c-0.59-3.05-2.25-5.23-5.54-5.42c-3.36-0.19-4.96,1.9-5.87,4.92c-0.93,3.07-0.68,6.05,0.35,8.94
		c1.56,4.39,6.31,5.13,9.37,1.58C1078.75,545.61,1078.91,543.16,1078.87,540.65z"/>
	<path class="st7" d="M659.45,548.25c-2.33,3.54-5.25,4.26-8.62,4c-3.17-0.24-5.38-1.65-6.08-4.83c-0.74-3.36,0.62-6.06,3.71-7.52
		c2.5-1.18,5.18-1.37,7.92-1.47c1.07-0.04,2.95,1.22,3.3-0.98c0.3-1.89-0.3-3.61-2.09-4.65c-2.62-1.53-7.12-0.78-8.89,1.7
		c-0.78,1.1-1.58,1.8-2.67,1.14c-1.47-0.89-0.32-2.02,0.25-2.86c1.81-2.68,7.47-3.97,11.56-2.83c3.72,1.04,4.73,3.77,4.78,7.21
		c0.06,4.07,0.19,8.13,0.25,12.19c0.01,0.86,0.96,2.1-0.76,2.39c-1.54,0.25-2.38-0.42-2.38-2.03
		C659.74,549.42,659.63,549.12,659.45,548.25z M657.07,540.69c-2.26-0.03-4.13,0.35-5.92,1.01c-2.4,0.9-3.67,2.64-3.05,5.23
		c0.64,2.7,2.79,3.27,5.21,3.1c2.86-0.2,5.68-2.75,6.31-5.7C660.12,542.04,659.85,540.21,657.07,540.69z"/>
	<path class="st7" d="M566.89,548.34c-2.14,3.28-5,4.17-8.38,3.93c-3.51-0.25-5.85-2.03-6.34-4.95c-0.59-3.54,0.82-6.13,4.16-7.59
		c2.76-1.2,5.69-1.44,8.63-1.17c2.2,0.2,2.46-0.87,2.17-2.57c-0.31-1.82-1.23-3.13-3.12-3.56c-2.63-0.6-5.17-0.6-7.33,1.33
		c-0.41,0.37-0.7,0.89-0.96,1.38c-0.6,1.15-1.62,0.81-2.33,0.45c-0.9-0.45-0.53-1.3-0.12-2.04c0.62-1.12,1.42-1.99,2.58-2.58
		c3.18-1.61,6.48-1.7,9.85-0.83c2.6,0.67,4.04,2.48,4.2,5.08c0.31,5.07,0.44,10.14,0.65,15.21c0.03,0.76-0.09,1.34-1.04,1.33
		c-0.79-0.01-1.67,0.11-2.02-0.83C567.25,550.26,567.16,549.52,566.89,548.34z M567.19,542.94c0.5-2.28-1.18-2.23-2.87-2.26
		c-5.43-0.09-8.9,1.92-8.86,5.26c0.03,2.83,1.82,3.96,4.39,4.1C563.61,550.26,567.08,546.97,567.19,542.94z"/>
	<path class="st7" d="M833.66,548.37c-2.24,3.36-5.23,4.15-8.72,3.87c-3.05-0.25-5.15-1.66-5.93-4.61
		c-0.86-3.23,0.52-6.19,3.48-7.65c2.91-1.43,6.08-1.72,9.26-1.42c2.22,0.21,2.45-0.89,2.16-2.57c-0.31-1.82-1.24-3.13-3.13-3.55
		c-2.62-0.58-5.18-0.64-7.32,1.34c-0.4,0.37-0.7,0.89-0.96,1.38c-0.61,1.13-1.62,0.8-2.33,0.44c-0.89-0.46-0.52-1.3-0.11-2.04
		c0.62-1.12,1.42-1.99,2.59-2.57c3.18-1.61,6.48-1.69,9.85-0.82c2.61,0.67,4.03,2.49,4.19,5.09c0.31,5.07,0.43,10.14,0.65,15.22
		c0.03,0.77-0.11,1.33-1.05,1.32c-0.8-0.01-1.67,0.1-2.01-0.84C834.01,550.26,833.92,549.52,833.66,548.37z M833.95,542.91
		c0.48-2.31-1.25-2.18-2.88-2.22c-5.36-0.1-8.78,1.88-8.86,5.15c-0.07,2.5,1.73,4.16,4.57,4.22
		C830.51,550.14,833.88,546.88,833.95,542.91z"/>
	<path class="st7" d="M719.44,548.27c-2.21,3.57-5.24,4.23-8.73,3.98c-3.11-0.22-5.05-1.88-5.95-4.66
		c-0.92-2.83,0.52-6.01,3.29-7.45c2.65-1.38,5.55-1.67,8.53-1.67c1.02,0,2.73,0.94,3.03-0.9c0.27-1.64,0.12-3.35-1.58-4.5
		c-2.54-1.72-7.35-1.22-9.17,1.33c-0.88,1.23-1.85,2.03-2.96,1.14c-1.39-1.11,0.06-2.34,0.77-3.08c3.18-3.31,7.28-3.18,11.35-2.42
		c3.9,0.73,4.64,3.98,4.85,7.19c0.26,4.05,0.17,8.12,0.13,12.18c-0.01,0.83,0.69,2.11-0.99,2.38c-1.62,0.25-1.88-0.76-2.02-1.97
		C719.95,549.49,719.78,549.19,719.44,548.27z M719.71,543.2c0.43-1.76-0.34-2.44-2.3-2.53c-5.37-0.24-9.24,1.78-9.36,5.11
		c-0.1,2.89,1.65,4.03,4.19,4.26C716.05,550.39,719.46,547.29,719.71,543.2z"/>
	<path class="st9" d="M753.28,548.02c-2.41,3.62-5.35,4.47-8.85,4.24c-3.43-0.23-5.52-2.03-6.25-5.18c-0.72-3.14,0.9-5.53,3.56-7
		c2.51-1.39,5.35-1.58,8.21-1.63c1.12-0.02,3.1,1.06,3.31-0.99c0.17-1.69-0.06-3.62-2.06-4.65c-2.81-1.45-7.1-0.87-8.86,1.71
		c-0.94,1.37-2.03,1.77-3.01,0.98c-1.12-0.91,0.06-1.98,0.7-2.82c2.13-2.79,7.72-3.86,11.91-2.51c3.97,1.28,4.36,4.47,4.42,7.84
		c0.07,3.84,0.06,7.69,0.02,11.53c-0.01,0.82,0.91,2.09-0.97,2.26c-1.66,0.15-1.9-0.73-1.83-2.03
		C753.6,549.46,753.48,549.13,753.28,548.02z M746.87,550.06c0.25-0.06,0.92-0.15,1.55-0.36c3.04-1.05,6.12-5.24,4.96-7.55
		c-1.43-2.86-4.28-1.2-6.57-0.95c-0.76,0.08-1.52,0.35-2.24,0.63c-2.28,0.89-3.55,2.62-3.01,5
		C742.1,549.22,744.04,550.14,746.87,550.06z"/>
	<path class="st9" d="M1054.9,548.02c-2.35,3.48-5.15,4.48-8.52,4.26c-3.69-0.24-6.1-2.16-6.68-5.49c-0.5-2.88,1.34-5.82,4.52-7.12
		c2.44-1,5-1.17,7.62-1.2c1.04-0.01,2.82,0.93,3.09-0.86c0.24-1.62-0.14-3.39-1.7-4.52c-2.46-1.79-7.43-1.25-9.21,1.28
		c-0.85,1.21-1.8,2.05-2.88,1.24c-1.33-1-0.14-2.2,0.61-3.11c2.19-2.67,7.95-3.67,11.98-2.24c3.73,1.32,4.13,4.36,4.15,7.64
		c0.03,3.95,0.04,7.9,0.12,11.85c0.02,0.9,0.91,2.03-1,2.08c-1.5,0.04-2.08-0.52-1.9-1.97
		C1055.14,549.51,1055.04,549.17,1054.9,548.02z M1047.81,550.09c2.03-0.01,3.77-0.73,5.1-2.25c1.54-1.76,2.93-4.08,1.95-6.11
		c-0.99-2.05-3.62-0.98-5.56-0.75c-1.1,0.13-2.19,0.49-3.23,0.88c-2.16,0.81-3.36,2.5-2.97,4.72
		C1043.53,548.98,1045.36,550.07,1047.81,550.09z"/>
	<path class="st7" d="M1106.41,541.01c-0.01,7.44-4.32,11.77-11.14,11.2c-4.07-0.34-6.75-3.15-7.94-8.35
		c-1.76-7.65,3.04-14.38,10.09-14.16C1102.86,529.87,1106.42,534.35,1106.41,541.01z M1102.93,540.84
		c-0.07-1.06,0.07-2.36-0.28-3.52c-0.78-2.59-2.19-4.66-5.24-4.97c-2.85-0.29-4.88,0.95-5.92,3.48c-1.42,3.46-1.38,7.05,0.05,10.5
		c0.93,2.23,2.84,3.59,5.28,3.58c2.27-0.01,4.03-1.27,5.13-3.31C1102.89,544.84,1102.81,542.91,1102.93,540.84z"/>
	<path class="st7" d="M769.85,552.33c-3.2,0.07-6.09-0.64-8.08-3.39c-0.55-0.76-1.58-1.8-0.61-2.57c0.93-0.74,2.02-0.66,3.03,0.77
		c1.94,2.75,5.67,3.48,8.82,2.24c1.49-0.58,2.47-1.45,2.47-3.22c-0.01-1.81-1.06-2.68-2.59-3.07c-1.84-0.48-3.73-0.78-5.6-1.17
		c-3.93-0.81-6.17-3.13-5.98-6.2c0.2-3.28,3.15-5.81,7.03-6.02c3.15-0.17,6.12,0.21,8.29,2.84c0.58,0.71,1.59,1.7,0.67,2.43
		c-0.7,0.56-2.02,0.78-2.91-0.54c-1.76-2.59-4.5-2.32-7.07-1.89c-1.48,0.25-2.71,1.29-2.72,3.01c-0.01,1.58,1.14,2.47,2.48,2.85
		c1.94,0.55,3.97,0.8,5.93,1.3c4.62,1.18,6.2,3.09,5.84,6.87c-0.3,3.09-3.02,5.29-6.97,5.62
		C771.21,552.24,770.53,552.28,769.85,552.33z"/>
	<path class="st7" d="M891.24,540.8c0.04,7.23-3.87,11.63-10.2,11.48c-4.53-0.11-7.34-2.65-8.7-7.87
		c-2.03-7.83,2.61-14.83,9.74-14.71C887.6,529.79,891.2,534.16,891.24,540.8z M887.76,540.99c0-5.16-1.78-8.13-5.17-8.6
		c-4.42-0.61-7.09,2.53-7.12,8.38c-0.03,5.64,2.42,9.24,6.24,9.18C885.49,549.9,887.76,546.54,887.76,540.99z"/>
	<path class="st8" d="M1021.14,548.5c-1.55,1.92-3.17,3.69-5.94,3.79c-4.55,0.17-7.51-2.28-7.7-6.98c-0.17-4.4-0.01-8.8-0.06-13.21
		c-0.01-1.22,0.21-1.84,1.65-1.79c1.51,0.05,1.56,0.9,1.55,1.99c-0.02,3.73-0.05,7.45,0.01,11.18c0.07,4.31,1.49,6.34,4.38,6.45
		c2.92,0.11,5.88-2.98,6.04-6.56c0.15-3.38,0.02-6.77,0.13-10.16c0.04-1.13-0.82-2.81,1.59-2.9c2.46-0.1,1.68,1.59,1.7,2.73
		c0.06,5.08,0.11,10.16-0.04,15.24c-0.03,1.17,1.22,3.18-1.23,3.48C1020.66,552.07,1022.37,549.49,1021.14,548.5z"/>
	<path class="st6" d="M531.79,536.84c0-3.95,0.06-7.91-0.03-11.86c-0.04-1.63,0.24-2.43,2.17-2.37c4.53,0.14,9.06,0.05,13.59,0.04
		c1.04,0,1.99-0.12,2.02,1.47c0.03,1.58-0.85,1.53-1.94,1.52c-3.4-0.02-6.8,0.09-10.19-0.05c-1.81-0.08-2.22,0.53-2.26,2.27
		c-0.14,7.27-0.2,7.27,7.08,7.27c1.13,0,2.27,0.04,3.4-0.01c1.06-0.04,1.33,0.45,1.34,1.43c0.01,1.09-0.53,1.32-1.46,1.31
		c-2.49-0.02-5,0.18-7.47-0.06c-2.5-0.24-3.05,0.74-2.9,3.03c0.2,2.92,0.03,5.87,0.06,8.81c0.01,1.19,0.1,2.16-1.67,2.16
		c-1.67,0-1.78-0.8-1.76-2.08C531.82,545.43,531.79,541.13,531.79,536.84z"/>
	<path class="st9" d="M900.1,533.51c0.78-0.84,1.27-1.44,1.84-1.96c2.1-1.91,4.52-2.41,7.2-1.44c2.88,1.05,4.32,3.26,4.4,6.19
		c0.13,4.51,0.03,9.03,0.06,13.54c0.01,1.09,0.01,2.02-1.55,1.94c-1.42-0.07-1.24-1.02-1.25-1.9c-0.01-3.72,0.02-7.45-0.01-11.17
		c-0.04-4.31-1.59-6.29-4.83-6.29c-3.3,0.01-5.87,2.69-5.97,6.44c-0.1,3.5-0.03,7-0.03,10.5c0,1.22,0.31,2.49-1.74,2.45
		c-2.11-0.04-1.62-1.43-1.63-2.57c-0.02-5.19-0.09-10.39,0.06-15.57c0.03-1.07-1.16-2.84,1.03-3.3
		C900.26,529.84,899.2,532.24,900.1,533.51z"/>
	<path class="st8" d="M963.03,533.66c2-2.59,4.21-4.48,7.53-3.94c3.04,0.5,5.16,2.1,5.69,5.34c0.81,4.94,0.28,9.92,0.46,14.89
		c0.05,1.27-0.39,1.87-1.73,1.85c-1.57-0.03-1.43-1.07-1.43-2.11c0-4.07-0.05-8.13,0-12.2c0.03-2.24-0.61-4.16-2.86-4.85
		c-2.32-0.72-4.46-0.12-6.08,1.87c-1.43,1.76-1.85,3.83-1.9,6c-0.05,2.6,0.12,5.21-0.07,7.79c-0.09,1.19,1.16,3.31-1.31,3.43
		c-2.64,0.13-1.44-2.1-1.47-3.25c-0.14-4.97-0.15-9.94,0.01-14.91c0.03-1.05-1.2-2.93,1.13-3.2
		C963.72,530.04,962.02,532.46,963.03,533.66z"/>
	<path class="st7" d="M627.44,541.3c0.34,1.41,0.17,3.11,0.81,4.74c0.88,2.22,2.39,3.67,4.69,3.85c2.35,0.18,4.15-1.07,4.99-3.3
		c0.55-1.44,1.34-2.67,2.85-1.8c1.57,0.9,0.13,2.31-0.32,3.22c-2.75,5.56-10.76,5.92-14.3,0.72c-2.84-4.17-2.61-11.99,0.48-15.95
		c2.18-2.8,5.19-3.55,8.48-2.99c3.02,0.52,4.92,2.57,5.94,5.42c0.24,0.68,0.9,1.61-0.31,1.9c-0.67,0.16-1.77,0.95-2.21-0.54
		c-1.04-3.52-3.4-4.95-6.96-4.04C629.01,533.19,627.4,536.68,627.44,541.3z"/>
	<path class="st8" d="M866.97,552.32c-4.31-0.08-6.34-1.96-6.47-6c-0.12-3.72-0.09-7.44,0-11.16c0.04-1.7-0.14-2.91-2.29-2.6
		c-0.89,0.13-1.57-0.16-1.54-1.25c0.03-0.99,0.8-1.05,1.43-0.94c2.43,0.43,2.45-1.02,2.43-2.76c-0.01-0.9-0.56-2.16,0.7-2.69
		c1.71-0.72,2.88-0.44,2.56,1.81c-0.35,2.48,0.06,4.23,3.23,3.64c0.71-0.13,1.63-0.26,1.66,1.02c0.03,1.5-1.09,1.3-1.87,1.16
		c-2.75-0.51-3.18,0.83-3.06,3.19c0.18,3.6,0.1,7.21,0.06,10.82c-0.02,2.26,1.21,3.16,3.27,3.5c0.99,0.16,2.95-0.97,2.71,1.21
		C869.58,553.09,867.64,551.7,866.97,552.32z"/>
	<path class="st8" d="M733.1,542.7c0,3.5,0.2,7.01-0.05,10.49c-0.34,4.74-3.93,7.11-8.19,5.86c-1.01-0.3-1.22-0.7-1.17-1.6
		c0.06-1.13,0.75-0.71,1.4-0.72c4.01-0.08,4.71-0.79,4.72-4.71c0.01-6.43-0.02-12.86,0.03-19.29c0.01-1.16-0.73-2.89,1.68-2.8
		c2.34,0.09,1.57,1.79,1.6,2.96c0.08,3.27,0.03,6.54,0.03,9.81C733.13,542.7,733.12,542.7,733.1,542.7z"/>
	<path class="st9" d="M1031.32,537.18c0-4.18,0.03-8.35-0.02-12.53c-0.02-1.33,0.19-2.09,1.81-2.05c1.47,0.04,1.6,0.76,1.6,1.91
		c-0.02,8.47-0.03,16.93,0,25.4c0,1.19-0.18,1.87-1.63,1.9c-1.65,0.03-1.8-0.8-1.78-2.1
		C1031.35,545.54,1031.32,541.36,1031.32,537.18z"/>
	<path class="st9" d="M846.89,534.03c1.61-1.67,2.79-3.65,5.12-4.19c0.78-0.18,2.13-0.88,2.41,0.79c0.18,1.08,0.03,1.94-1.37,2.21
		c-4.55,0.87-5.72,4.3-5.93,8.25c-0.15,2.81-0.04,5.64-0.03,8.47c0.01,1.16,0.16,2.29-1.63,2.24c-1.7-0.04-1.31-1.21-1.32-2.14
		c-0.02-5.64-0.04-11.29,0.02-16.93c0.01-0.92-0.71-2.38,1.33-2.4c2.01-0.01,1.26,1.39,1.39,2.35
		C846.94,533.12,846.89,533.58,846.89,534.03z"/>
	<path class="st9" d="M603.91,534.13c1.61-1.84,2.84-3.78,5.19-4.3c0.77-0.17,2.13-0.85,2.36,0.86c0.15,1.12-0.07,1.9-1.43,2.17
		c-4.53,0.88-5.7,4.32-5.92,8.25c-0.16,2.92-0.06,5.86-0.03,8.79c0.01,1.16-0.15,1.96-1.63,1.89c-1.4-0.06-1.28-0.97-1.28-1.87
		c0-5.75-0.02-11.5,0.02-17.25c0.01-0.96-0.62-2.39,1.39-2.33c2,0.06,1.15,1.5,1.31,2.44C603.97,533.21,603.91,533.68,603.91,534.13
		z"/>
	<path class="st9" d="M615.52,540.61c0-2.7,0.01-5.41,0-8.11c0-1.13-0.2-2.19,1.61-2.2c1.64-0.01,1.8,0.71,1.79,2.03
		c-0.05,5.74-0.02,11.49-0.02,17.23c0,1.13,0.21,2.22-1.6,2.25c-1.99,0.04-1.79-1.16-1.78-2.42
		C615.53,546.47,615.52,543.54,615.52,540.61z"/>
	<path class="st8" d="M887.58,521.99c0.16,0.58-0.1,0.81-0.58,1.03c-2.34,1.06-4.66,2.18-7.01,3.23c-0.38,0.17-0.83,0.14-1.17-0.33
		c-0.48-0.66-0.12-1.08,0.36-1.35c2.22-1.3,4.46-2.56,6.72-3.81C887.39,519.93,886.96,521.7,887.58,521.99z"/>
	<path class="st8" d="M567.83,521.9c0.17,0.57-0.04,0.88-0.51,1.1c-2.32,1.06-4.62,2.17-6.96,3.19c-0.31,0.14-0.96,0.01-1.18-0.24
		c-0.46-0.51-0.14-1.1,0.35-1.39c2.2-1.3,4.43-2.55,6.66-3.81C567.66,519.92,567.32,521.54,567.83,521.9z"/>
	<path class="st8" d="M731.42,526.19c-1.46,0.24-1.63-0.6-1.7-1.79c-0.1-1.63,0.73-1.8,2.06-1.82c1.6-0.02,1.43,0.96,1.49,2.01
		C733.36,526.01,732.65,526.38,731.42,526.19z"/>
	<path class="st8" d="M617.18,522.64c1.31-0.2,1.78,0.33,1.78,1.67c0.01,1.42-0.38,1.97-1.9,1.96c-1.5-0.01-1.56-0.78-1.6-1.9
		C615.42,523.08,615.81,522.42,617.18,522.64z"/>
</g>
</svg>
